<svg xmlns="http://www.w3.org/2000/svg" width="226.985" height="16" viewBox="0 0 226.985 16">
  <g id="Group_6472" data-name="Group 6472" transform="translate(-25 -277)">
    <path id="Path_36295" data-name="Path 36295" d="M3.335,3.892H10.1V5.671H1.218V-9.968H3.335ZM19.313,5.671H17.2V-9.968h2.117Zm6.745-15.64H27.75a.7.7,0,0,1,.458.142.873.873,0,0,1,.262.36l4.42,11.034a7.74,7.74,0,0,1,.278.808q.126.437.246.906.1-.469.213-.906a6.368,6.368,0,0,1,.267-.808l4.4-11.034a.914.914,0,0,1,.262-.344.682.682,0,0,1,.458-.158h1.7L34.342,5.671h-1.91Zm30.658,0v1.724H49.207v5.2h6.079V-1.39H49.207V3.947h7.509V5.671H47.079V-9.968ZM78.784,3.991a4.367,4.367,0,0,0,1.735-.327,3.64,3.64,0,0,0,1.293-.917,4.01,4.01,0,0,0,.808-1.408,5.565,5.565,0,0,0,.278-1.8V-9.968h2.106V-.462a7.133,7.133,0,0,1-.431,2.51,5.832,5.832,0,0,1-1.233,2,5.639,5.639,0,0,1-1.959,1.326,6.718,6.718,0,0,1-2.6.48,6.718,6.718,0,0,1-2.6-.48,5.7,5.7,0,0,1-1.965-1.326,5.79,5.79,0,0,1-1.239-2,7.133,7.133,0,0,1-.431-2.51V-9.968h2.106v9.5a5.565,5.565,0,0,0,.278,1.8,4.009,4.009,0,0,0,.808,1.408,3.687,3.687,0,0,0,1.3.922A4.344,4.344,0,0,0,78.784,3.991ZM95.33-.178v5.85H93.223V-9.968H97.84a8.663,8.663,0,0,1,2.581.344,4.958,4.958,0,0,1,1.817.977,3.937,3.937,0,0,1,1.075,1.528,5.379,5.379,0,0,1,.355,2,5.09,5.09,0,0,1-.382,2,4.3,4.3,0,0,1-1.119,1.561,5.2,5.2,0,0,1-1.828,1.02,7.857,7.857,0,0,1-2.5.366Zm0-1.681h2.51a4.878,4.878,0,0,0,1.6-.24,3.279,3.279,0,0,0,1.162-.671,2.788,2.788,0,0,0,.709-1.031,3.525,3.525,0,0,0,.24-1.321,3,3,0,0,0-.922-2.336A4.025,4.025,0,0,0,97.84-8.3H95.33Zm28.933-.284a8.807,8.807,0,0,1-.557,3.2,7.092,7.092,0,0,1-1.572,2.467A7.007,7.007,0,0,1,119.7,5.109a8.465,8.465,0,0,1-3.143.562h-5.85V-9.968h5.85a8.465,8.465,0,0,1,3.143.562,6.969,6.969,0,0,1,2.434,1.593,7.149,7.149,0,0,1,1.572,2.472A8.807,8.807,0,0,1,124.263-2.143Zm-2.172,0a7.85,7.85,0,0,0-.393-2.576,5.429,5.429,0,0,0-1.113-1.921,4.748,4.748,0,0,0-1.746-1.2,6.035,6.035,0,0,0-2.281-.415h-3.722V3.958h3.722a6.035,6.035,0,0,0,2.281-.415,4.779,4.779,0,0,0,1.746-1.2A5.372,5.372,0,0,0,121.7.433,7.85,7.85,0,0,0,122.091-2.143Zm21.828,7.814h-1.637a.7.7,0,0,1-.458-.142.872.872,0,0,1-.262-.36L140.1,1.393h-7.018l-1.462,3.776a.853.853,0,0,1-.262.349.7.7,0,0,1-.458.153h-1.637l6.254-15.64h2.15ZM133.671-.135h5.839L137.054-6.5a11.892,11.892,0,0,1-.469-1.473q-.12.447-.235.824t-.224.66Zm25.8-9.834v1.779h-5.053V5.671H152.3V-8.189h-5.075V-9.968Zm16.229,0v1.724h-7.509v5.2h6.079V-1.39h-6.079V3.947H175.7V5.671h-9.637V-9.968Zm15.422,2.445a.846.846,0,0,1-.207.246.461.461,0,0,1-.284.082.756.756,0,0,1-.431-.186,6.872,6.872,0,0,0-.622-.409,5.049,5.049,0,0,0-.906-.409,3.9,3.9,0,0,0-1.282-.186,3.792,3.792,0,0,0-1.255.191,2.669,2.669,0,0,0-.911.518,2.128,2.128,0,0,0-.551.769,2.442,2.442,0,0,0-.186.955,1.765,1.765,0,0,0,.322,1.086,2.774,2.774,0,0,0,.851.737,6.522,6.522,0,0,0,1.2.529q.671.224,1.375.464t1.375.54a4.837,4.837,0,0,1,1.2.759,3.458,3.458,0,0,1,.851,1.124,3.742,3.742,0,0,1,.322,1.637,5.28,5.28,0,0,1-.349,1.926,4.441,4.441,0,0,1-1.02,1.566,4.774,4.774,0,0,1-1.648,1.048,6.062,6.062,0,0,1-2.221.382,6.782,6.782,0,0,1-2.767-.551,6.49,6.49,0,0,1-2.134-1.49l.611-1a.8.8,0,0,1,.213-.2.5.5,0,0,1,.278-.082.868.868,0,0,1,.524.246,8.73,8.73,0,0,0,.737.54,5.627,5.627,0,0,0,1.07.54,4.221,4.221,0,0,0,1.533.246,4.032,4.032,0,0,0,1.342-.207,2.851,2.851,0,0,0,1-.584,2.53,2.53,0,0,0,.628-.9A3.009,3.009,0,0,0,190,1.229a1.96,1.96,0,0,0-.322-1.162,2.669,2.669,0,0,0-.846-.759,5.912,5.912,0,0,0-1.2-.518l-1.375-.437a13.867,13.867,0,0,1-1.375-.518,4.47,4.47,0,0,1-1.2-.764,3.51,3.51,0,0,1-.846-1.173,4.179,4.179,0,0,1-.322-1.741,4.142,4.142,0,0,1,.322-1.6,4.135,4.135,0,0,1,.933-1.375,4.523,4.523,0,0,1,1.512-.96,5.537,5.537,0,0,1,2.068-.36,6.62,6.62,0,0,1,2.39.415,5.5,5.5,0,0,1,1.888,1.2Z" transform="translate(60 287.143)" fill="#900"/>
    <path id="Path_36294" data-name="Path 36294" d="M0,8A8,8,0,1,0,8,0,8,8,0,0,0,0,8" transform="translate(25 277)" fill="#900"/>
  </g>
</svg>
